<svg xmlns="http://www.w3.org/2000/svg" width="34.68" height="34.69" viewBox="0 0 34.68 34.69">
  <defs>
    <style>
      .cls-1 {
        fill: #6712bd;
        fill-rule: evenodd;
      }
    </style>
  </defs>
  <path id="Code" class="cls-1" d="M1469.92,1038.4h1.16v1.16h-1.16v-1.16Zm17.35,1.16h-0.58v-20.81a2.311,2.311,0,0,0-2.31-2.31h-3.47v-4.63a2.313,2.313,0,0,0-2.32-2.31h-16.18a2.313,2.313,0,0,0-2.32,2.31v4.63h-3.46a2.313,2.313,0,0,0-2.32,2.31v20.81h-0.58a0.578,0.578,0,0,0-.57.58v1.73a2.313,2.313,0,0,0,2.31,2.32h30.06a2.313,2.313,0,0,0,2.31-2.32v-1.73A0.578,0.578,0,0,0,1487.27,1039.56Zm-26.02-27.75a1.161,1.161,0,0,1,1.16-1.16h16.18a1.161,1.161,0,0,1,1.16,1.16v2.31h-18.5v-2.31Zm0,3.47h18.5v16.77a1.159,1.159,0,0,1-1.16,1.15h-16.18a1.159,1.159,0,0,1-1.16-1.15v-16.77Zm1.16,19.08h16.18a2.32,2.32,0,0,0,2.32-2.31V1019.9h2.31v16.19h-25.44V1019.9h2.31v12.15A2.32,2.32,0,0,0,1462.41,1034.36Zm-6.94-15.61a1.161,1.161,0,0,1,1.16-1.16h3.46v1.16h-2.89a0.572,0.572,0,0,0-.57.58v17.34a0.572,0.572,0,0,0,.57.58h26.6a0.58,0.58,0,0,0,.58-0.58v-17.34a0.58,0.58,0,0,0-.58-0.58h-2.89v-1.16h3.47a1.159,1.159,0,0,1,1.15,1.16v20.81h-9.83a0.583,0.583,0,0,0-.41.17l-0.98.99h-7.62l-0.98-.99a0.583,0.583,0,0,0-.41-0.17h-9.83v-20.81Zm31.22,23.12a1.161,1.161,0,0,1-1.16,1.16h-30.06a1.161,1.161,0,0,1-1.16-1.16v-1.15h10.75l0.98,0.98a0.583,0.583,0,0,0,.41.17h8.1a0.583,0.583,0,0,0,.41-0.17l0.98-.98h10.75v1.15ZM1462.98,1028h15.04v1.15h-15.04V1028Zm0,2.31h13.88v1.16h-13.88v-1.16Zm3.47-4.62h11.57v1.15h-11.57v-1.15Zm-4.04-13.88h1.15v1.16h-1.15v-1.16Zm2.31,0h1.15v1.16h-1.15v-1.16Zm2.31,0h1.16v1.16h-1.16v-1.16Zm-2.89,13.88h1.16v1.15h-1.16v-1.15Zm4.39-6.48-0.69-.92-2.31,1.73a0.576,0.576,0,0,0-.12.81,1.358,1.358,0,0,0,.12.12l2.31,1.73,0.69-.93-1.69-1.27Zm7.06,0.93a0.456,0.456,0,0,0-.12-0.12l-2.31-1.73-0.69.92,1.69,1.27-1.69,1.27,0.69,0.93,2.31-1.73A0.579,0.579,0,0,0,1475.59,1020.14Zm-6.78,3.02,2.31-5.78,1.07,0.43-2.31,5.78Z" transform="translate(-1453.16 -1009.5)"/>
</svg>
