<svg xmlns="http://www.w3.org/2000/svg" width="37" height="35.84" viewBox="0 0 37 35.84">
  <defs>
    <style>
      .cls-1 {
        fill: #6712bd;
        fill-rule: evenodd;
      }
    </style>
  </defs>
  <path id="De" class="cls-1" d="M1245.27,1008.92h-33.54a1.737,1.737,0,0,0-1.73,1.73v25.44a0.58,0.58,0,0,0,.58.58h13.17l-0.93,4.63h-1.26a0.572,0.572,0,0,0-.58.57v1.74h-1.15v1.15h17.34v-1.15h-1.15v-1.74a0.572,0.572,0,0,0-.58-0.57h-1.26l-0.93-4.63h13.17a0.58,0.58,0,0,0,.58-0.58v-25.44A1.737,1.737,0,0,0,1245.27,1008.92Zm-11.57,33.53h1.16v1.16h-12.72v-1.16h11.56Zm-9.7-1.15,0.93-4.63h7.14l0.93,4.63h-9Zm21.84-5.79h-34.68v-5.2h34.68v5.2Zm-8.09-21.39h-4.63a0.578,0.578,0,0,0-.57.58v5.2h1.15v-4.62h3.47v2.31h-2.31v1.16h2.31v2.89h-2.31v1.15h2.31v2.9h-2.31v1.15h2.31v2.31h-3.47v-4.62h-1.15v4.62h-2.32v-2.89c0-2.36,2.87-2.87,2.99-2.89a0.7,0.7,0,0,0,.2-0.08,0.573,0.573,0,0,0,.2-0.79l-5.2-8.67a0.489,0.489,0,0,0-.16-0.16,0.587,0.587,0,0,0-.83.16l-5.21,8.67a0.679,0.679,0,0,0-.07.2,0.592,0.592,0,0,0,.47.67c0.12,0.02,2.99.53,2.99,2.89v2.89h-2.31v-4.62h-1.16v4.62h-0.58v-10.4h0.58v1.15h1.16v-1.73a0.593,0.593,0,0,0-.05-0.23l-1.73-4.04a0.58,0.58,0,0,0-1.07,0l-1.73,4.04a0.593,0.593,0,0,0-.05.23v10.98h-4.62v-16.18h28.9v16.18h-4.62V1014.7A0.58,0.58,0,0,0,1237.75,1014.12Zm-10.98,13.3v-0.58h2.31v0.58h-2.31Zm2.31,1.16v0.57h-2.31v-0.57h2.31Zm-2.36-2.89a4.3,4.3,0,0,0-3.11-3.26l3.73-6.22v4.85h1.16v-4.85l3.73,6.22a4.311,4.311,0,0,0-3.11,3.26h-2.4Zm-6.59-8.1,0.85-2,0.86,2h-1.71Zm0.28,1.16v10.4h-0.58v-10.4h0.58Zm25.43,10.4h-1.73v-16.76a0.58,0.58,0,0,0-.58-0.58h-30.06a0.58,0.58,0,0,0-.58.58v16.76h-1.73v-18.5a0.576,0.576,0,0,1,.57-0.57h33.54a0.576,0.576,0,0,1,.57.57v18.5Zm-17.34,1.74a1.735,1.735,0,1,0,1.73,1.73A1.731,1.731,0,0,0,1228.5,1030.89Zm0,2.31a0.58,0.58,0,0,1-.58-0.58,0.58,0.58,0,0,1,1.16,0A0.58,0.58,0,0,1,1228.5,1033.2Z" transform="translate(-1210 -1008.91)"/>
</svg>
