<svg xmlns="http://www.w3.org/2000/svg" width="37" height="37" viewBox="0 0 37 37">
  <defs>
    <style>
      .cls-1 {
        fill: #6712bd;
        fill-rule: evenodd;
      }
    </style>
  </defs>
  <path id="re" class="cls-1" d="M765.788,1015.13l-6.576-6.58a0.744,0.744,0,0,0-.511-0.21H737.238a2.17,2.17,0,0,0-2.168,2.17v1.38a9.556,9.556,0,0,0-6.07,8.89,0.72,0.72,0,0,0,.723.72h8.823a0.72,0.72,0,0,0,.723-0.72v-8.82a0.729,0.729,0,0,0-.723-0.73,9.689,9.689,0,0,0-2.03.22v-0.94a0.72,0.72,0,0,1,.722-0.72h20.74v4.41a2.168,2.168,0,0,0,2.169,2.16h4.408v26.81a0.729,0.729,0,0,1-.723.73H737.238a0.729,0.729,0,0,1-.722-0.73v-6.19a0.723,0.723,0,0,0-1.446,0v6.19a2.17,2.17,0,0,0,2.168,2.17h26.594a2.169,2.169,0,0,0,2.168-2.17v-27.53A0.712,0.712,0,0,0,765.788,1015.13Zm-27.965-2.42v7.35h-7.346A8.114,8.114,0,0,1,737.823,1012.71Zm22.324,2.21a0.727,0.727,0,0,1-.723-0.72v-3.39l4.109,4.11h-3.386ZM736.3,1033.85a0.723,0.723,0,0,0-1.234.51,0.734,0.734,0,0,0,.212.51,0.727,0.727,0,0,0,1.022,0,0.738,0.738,0,0,0,.212-0.51A0.72,0.72,0,0,0,736.3,1033.85Zm4.83-20.03a0.72,0.72,0,0,0-.723.72v8.1h-8.1a0.729,0.729,0,0,0-.723.73A9.546,9.546,0,1,0,741.134,1013.82Zm0.723,1.48a8.072,8.072,0,0,1,4.468,1.85l-4.468,4.47v-6.32Zm-0.723,16.17a8.112,8.112,0,0,1-8.068-7.38h8.068a0.724,0.724,0,0,0,.511-0.21h0l5.7-5.7a8.03,8.03,0,0,1,1.887,5.19A8.113,8.113,0,0,1,741.134,1031.47Zm19.524-.32a2.169,2.169,0,0,0-2.168,2.17,2.137,2.137,0,0,0,.171.84l-4.164,4.17a2.147,2.147,0,0,0-.946-0.22,2.059,2.059,0,0,0-.925.21l-2.765-2.77a2.136,2.136,0,0,0,.149-0.79,2.168,2.168,0,1,0-4.136.91l-2.652,2.65a2.233,2.233,0,0,0-.932-0.21,2.167,2.167,0,1,0,1.955,1.23l2.637-2.63a2.2,2.2,0,0,0,.96.22,2.15,2.15,0,0,0,1.07-.28l2.687,2.68a2.2,2.2,0,0,0-.216.95,2.168,2.168,0,0,0,4.336,0,2.191,2.191,0,0,0-.206-0.93l4.125-4.12A2.167,2.167,0,1,0,760.658,1031.15ZM742.29,1041a0.72,0.72,0,1,1,0-1.44,0.7,0.7,0,0,1,.5.2s0,0,.008.01,0.008,0,.011.01a0.706,0.706,0,0,1,.2.5A0.721,0.721,0,0,1,742.29,1041Zm5.552-5.51a0.729,0.729,0,0,1-.723-0.73,0.723,0.723,0,0,1,1.445,0A0.729,0.729,0,0,1,747.842,1035.49Zm5.709,5.51a0.725,0.725,0,1,1,.723-0.72A0.726,0.726,0,0,1,753.551,1041Zm7.107-6.96a0.72,0.72,0,0,1-.723-0.72,0.723,0.723,0,1,1,1.445,0A0.72,0.72,0,0,1,760.658,1034.04Zm-3.613-8.72h-3.814a0.729,0.729,0,0,0-.722.73,0.72,0.72,0,0,0,.722.72h3.814a0.72,0.72,0,0,0,.723-0.72A0.729,0.729,0,0,0,757.045,1025.32Zm3.8,0.22a0.723,0.723,0,0,0-1.233.51,0.734,0.734,0,0,0,.212.51,0.726,0.726,0,0,0,1.021,0,0.734,0.734,0,0,0,.212-0.51A0.716,0.716,0,0,0,760.846,1025.54Zm1.213-7.15h-8.828a0.72,0.72,0,1,0,0,1.44h8.828A0.72,0.72,0,1,0,762.059,1018.39Zm0,3.47h-8.828a0.72,0.72,0,1,0,0,1.44h8.828A0.72,0.72,0,1,0,762.059,1021.86Z" transform="translate(-729 -1008.34)"/>
</svg>
