<svg xmlns="http://www.w3.org/2000/svg" width="37" height="36.87" viewBox="0 0 37 36.87">
  <defs>
    <style>
      .cls-1 {
        fill: #6712bd;
        fill-rule: evenodd;
      }
    </style>
  </defs>
  <path id="Sc" class="cls-1" d="M1002.74,1034.45a0.522,0.522,0,0,0-.59.12l-5.938,5.93a0.536,0.536,0,0,0-.118.59,0.543,0.543,0,0,0,.5.33h5.934a0.538,0.538,0,0,0,.54-0.54v-5.93A0.536,0.536,0,0,0,1002.74,1034.45Zm-4.833,5.89,4.083-4.08v4.08h-4.083Zm8.753-14.59a0.542,0.542,0,0,0-.59.12l-1.62,1.62v-11.05a0.546,0.546,0,0,0-.55-0.54h-4.169l1.519-1.52h0l1.46-1.45a1.666,1.666,0,0,0,.48-1.17,1.632,1.632,0,0,0-.48-1.17l-1.69-1.69a1.647,1.647,0,0,0-2.344,0l-1.46,1.46-1.765,1.76-3.78,3.78H974.814v-5.37a0.54,0.54,0,0,0-.543-0.54,4.27,4.27,0,0,0-4.271,4.26v23.06a0.459,0.459,0,0,0,.013.11,4.117,4.117,0,0,0,4.1,3.8h16.595l-3.126,3.12a0.546,0.546,0,0,0,.384.93h18.493a0.538,0.538,0,0,0,.54-0.54v-18.48A0.53,0.53,0,0,0,1006.66,1025.75Zm-7.216-16.08a0.557,0.557,0,0,1,.806,0l1.69,1.68a0.58,0.58,0,0,1,0,.81l-1.08,1.07-2.492-2.49Zm-1.844,1.84,2.49,2.49-0.993,1-2.494-2.49Zm8.31,20.84h-1a0.54,0.54,0,0,0,0,1.08h1v1.64h-1a0.54,0.54,0,0,0,0,1.08h1v1.64h-1a0.538,0.538,0,0,0-.54.54,0.546,0.546,0,0,0,.54.55h1v1.63h-1a0.538,0.538,0,0,0-.54.54,0.546,0.546,0,0,0,.54.55h1v2.58H989.279l5.485-5.48a0.534,0.534,0,0,0,0-.76,0.389,0.389,0,0,0-.078-0.07,0.547,0.547,0,0,0-.69.07l-2.2,2.19H974.114a2.859,2.859,0,0,1-3-3.23h0c0.006-.05.013-0.1,0.021-0.14a0.08,0.08,0,0,1,0-.02c0.008-.04.017-0.09,0.026-0.13,0-.01,0-0.02.008-0.03,0.008-.04.017-0.07,0.026-0.11,0.006-.02.012-0.04,0.017-0.06s0.016-.05.025-0.08,0.018-.05.027-0.08,0.013-.04.02-0.06,0.028-.07.042-0.1c0-.01.008-0.02,0.013-0.03,0.018-.04.038-0.09,0.058-0.13,0,0,0,0,0-.01a3.2,3.2,0,0,1,2.223-1.73h0.008l0.136-.03h0.023c0.041-.01.083-0.01,0.125-0.02h0.035a0.491,0.491,0,0,1,.121-0.01h0.039a0.855,0.855,0,0,1,.16-0.01,0.54,0.54,0,0,0,.543-0.54v-3.94a0.543,0.543,0,0,0-1.086,0v3.43a4.3,4.3,0,0,0-2.439,1.18c-0.071.07-.138,0.14-0.2,0.21v-20.21a3.191,3.191,0,0,1,2.642-3.13v16.35h0a0.543,0.543,0,1,0,1.086,0h0v-10.49h15.772l-3,3a0.544,0.544,0,0,0,.768.77l3.93-3.93h0l3.554-3.55,2.494,2.49-0.293.3h0L987.085,1027l-2.493-2.49,2.158-2.16a0.544,0.544,0,1,0-.768-0.77l-2.542,2.54c-0.014.02-.027,0.03-0.039,0.05,0,0-.007.01-0.011,0.01l-0.022.03a0.034,0.034,0,0,1-.012.02l-0.016.03a0.043,0.043,0,0,1-.01.02c0,0.01-.01.03-0.014,0.04s0,0,0,.01l-1.059,2.99-0.721,2.05a0.355,0.355,0,0,0-.021.08h-1.806a0.54,0.54,0,1,0,0,1.08h15.039a0.54,0.54,0,1,0,0-1.08h-10.79l3.312-1.17h0.008c0.013-.01.025-0.01,0.038-0.02a0.014,0.014,0,0,0,.015-0.01,0.067,0.067,0,0,0,.038-0.02,0.011,0.011,0,0,0,.012-0.01,0.07,0.07,0,0,0,.039-0.02c0-.01.006-0.01,0.009-0.01a0.147,0.147,0,0,0,.044-0.04l11.176-11.17h4.715v11.6l-7.768,7.76a0.546,0.546,0,0,0,0,.77,0.169,0.169,0,0,1,.041.04,0.55,0.55,0,0,0,.686,0,0.169,0.169,0,0,1,.041-0.04h0l9.55-9.55v4.79Zm-19.818-4.81-1.556.55-1.036-1.03,0.549-1.56Z" transform="translate(-970 -1008.41)"/>
</svg>
