<?xml version="1.0" encoding="utf-8"?>
<!-- Generator: Adobe Illustrator 21.1.0, SVG Export Plug-In . SVG Version: 6.00 Build 0)  -->
<svg version="1.1" id="Layer_1" xmlns="http://www.w3.org/2000/svg" xmlns:xlink="http://www.w3.org/1999/xlink" x="0px" y="0px"
	 viewBox="0 0 841.9 595.3" style="enable-background:new 0 0 841.9 595.3;" xml:space="preserve">
<style type="text/css">
	.st0{fill:#F1F3F9;stroke:#2C0452;stroke-width:1.4397;stroke-miterlimit:10;}
	.st1{fill:#B2BAD1;}
	.st2{fill:#CAD0E1;}
	.st3{fill:#336699;}
	.st4{fill:#2C0452;}
	.st5{fill:#D8DCEB;}
</style>
<g>
	<path class="st0" d="M446.4,367.2h-73.9c-2.6,0-4.8-2.1-4.8-4.8V233.8c0-2.6,2.1-4.8,4.8-4.8h95.3c2.6,0,4.8,2.1,4.8,4.8V341
		L446.4,367.2L446.4,367.2z"/>
	<path class="st1" d="M386.8,291H382c-1.3,0-2.4-1.1-2.4-2.4c0-1.3,1.1-2.4,2.4-2.4h4.8c1.3,0,2.4,1.1,2.4,2.4
		C389.2,289.9,388.1,291,386.8,291L386.8,291z"/>
	<path class="st1" d="M386.8,300.5H382c-1.3,0-2.4-1.1-2.4-2.4c0-1.3,1.1-2.4,2.4-2.4h4.8c1.3,0,2.4,1.1,2.4,2.4
		C389.2,299.4,388.1,300.5,386.8,300.5L386.8,300.5z"/>
	<path class="st1" d="M386.8,310H382c-1.3,0-2.4-1.1-2.4-2.4c0-1.3,1.1-2.4,2.4-2.4h4.8c1.3,0,2.4,1.1,2.4,2.4
		C389.2,309,388.1,310,386.8,310L386.8,310z"/>
	<path class="st2" d="M458.3,291h-4.8c-1.3,0-2.4-1.1-2.4-2.4c0-1.3,1.1-2.4,2.4-2.4h4.8c1.3,0,2.4,1.1,2.4,2.4
		C460.7,289.9,459.6,291,458.3,291L458.3,291z"/>
	<path class="st2" d="M458.3,300.5h-4.8c-1.3,0-2.4-1.1-2.4-2.4c0-1.3,1.1-2.4,2.4-2.4h4.8c1.3,0,2.4,1.1,2.4,2.4
		C460.7,299.4,459.6,300.5,458.3,300.5L458.3,300.5z"/>
	<path class="st2" d="M458.3,310h-4.8c-1.3,0-2.4-1.1-2.4-2.4c0-1.3,1.1-2.4,2.4-2.4h4.8c1.3,0,2.4,1.1,2.4,2.4
		C460.7,309,459.6,310,458.3,310L458.3,310z"/>
	<path class="st2" d="M424.9,291h-28.6c-1.3,0-2.4-1.1-2.4-2.4c0-1.3,1.1-2.4,2.4-2.4h28.6c1.3,0,2.4,1.1,2.4,2.4
		C427.3,289.9,426.2,291,424.9,291L424.9,291z"/>
	<path class="st2" d="M415.4,300.5h-19.1c-1.3,0-2.4-1.1-2.4-2.4c0-1.3,1.1-2.4,2.4-2.4h19.1c1.3,0,2.4,1.1,2.4,2.4
		C417.8,299.4,416.7,300.5,415.4,300.5L415.4,300.5z"/>
	<path class="st2" d="M424.9,310h-28.6c-1.3,0-2.4-1.1-2.4-2.4c0-1.3,1.1-2.4,2.4-2.4h28.6c1.3,0,2.4,1.1,2.4,2.4
		C427.3,309,426.2,310,424.9,310L424.9,310z"/>
	<path class="st3" d="M391.6,345.4v-5.6c1.9,1,2.4,1.9,2.4,3.1C393.9,343.9,393,344.8,391.6,345.4L391.6,345.4z M384.4,329.5
		c0-0.9,0.9-1.9,2.4-2.4v5.6C384.8,331.7,384.4,330.8,384.4,329.5L384.4,329.5z M391.6,334.6v-7.5c1.5,0.5,2.4,1.5,2.4,2.4
		c0,1.3,1.1,2.4,2.4,2.4c1.3,0,2.4-1.1,2.4-2.4c0-3.6-3-6.5-7.2-7.3V322c0-1.3-1.1-2.4-2.4-2.4c-1.3,0-2.4,1.1-2.4,2.4v0.3
		c-4.1,0.8-7.2,3.7-7.2,7.3c0,5,4,7.1,7.2,8.4v7.5c-1.5-0.5-2.4-1.5-2.4-2.4c0-1.3-1.1-2.4-2.4-2.4c-1.3,0-2.4,1.1-2.4,2.4
		c0,3.6,3,6.5,7.2,7.3v0.3c0,1.3,1.1,2.4,2.4,2.4c1.3,0,2.4-1.1,2.4-2.4v-0.3c4.1-0.8,7.2-3.7,7.2-7.3
		C398.7,337.9,394.8,335.8,391.6,334.6L391.6,334.6z"/>
	<path class="st1" d="M422.5,329.1h-16.7c-1.3,0-2.4-1.1-2.4-2.4c0-1.3,1.1-2.4,2.4-2.4h16.7c1.3,0,2.4,1.1,2.4,2.4
		C424.9,328,423.9,329.1,422.5,329.1L422.5,329.1z"/>
	<path class="st2" d="M415.4,348.2h-9.5c-1.3,0-2.4-1.1-2.4-2.4c0-1.3,1.1-2.4,2.4-2.4h9.5c1.3,0,2.4,1.1,2.4,2.4
		C417.8,347.1,416.7,348.2,415.4,348.2L415.4,348.2z"/>
	<path class="st2" d="M429.7,348.2h-4.8c-1.3,0-2.4-1.1-2.4-2.4c0-1.3,1.1-2.4,2.4-2.4h4.8c1.3,0,2.4,1.1,2.4,2.4
		C432.1,347.1,431,348.2,429.7,348.2L429.7,348.2z"/>
	<path class="st1" d="M436.8,338.6h-31c-1.3,0-2.4-1.1-2.4-2.4c0-1.3,1.1-2.4,2.4-2.4h31c1.3,0,2.4,1.1,2.4,2.4
		C439.2,337.6,438.2,338.6,436.8,338.6L436.8,338.6z"/>
	<path class="st4" d="M446.4,367.2v-21.5c0-2.6,2.1-4.8,4.8-4.8h21.5L446.4,367.2L446.4,367.2z"/>
	<path class="st5" d="M424.9,295.7c1.3,0,2.4,1.1,2.4,2.4c0,1.3-1.1,2.4-2.4,2.4s-2.4-1.1-2.4-2.4
		C422.5,296.8,423.6,295.7,424.9,295.7L424.9,295.7z"/>
	<path class="st5" d="M444,295.7c1.3,0,2.4,1.1,2.4,2.4c0,1.3-1.1,2.4-2.4,2.4c-1.3,0-2.4-1.1-2.4-2.4
		C441.6,296.8,442.7,295.7,444,295.7L444,295.7z"/>
	<path class="st5" d="M434.5,295.7c1.3,0,2.4,1.1,2.4,2.4c0,1.3-1.1,2.4-2.4,2.4c-1.3,0-2.4-1.1-2.4-2.4
		C432.1,296.8,433.1,295.7,434.5,295.7L434.5,295.7z"/>
	<path class="st5" d="M444,286.2c1.3,0,2.4,1.1,2.4,2.4c0,1.3-1.1,2.4-2.4,2.4c-1.3,0-2.4-1.1-2.4-2.4
		C441.6,287.3,442.7,286.2,444,286.2L444,286.2z"/>
	<path class="st5" d="M434.5,286.2c1.3,0,2.4,1.1,2.4,2.4c0,1.3-1.1,2.4-2.4,2.4c-1.3,0-2.4-1.1-2.4-2.4
		C432.1,287.3,433.1,286.2,434.5,286.2L434.5,286.2z"/>
	<path class="st5" d="M444,305.3c1.3,0,2.4,1.1,2.4,2.4c0,1.3-1.1,2.4-2.4,2.4c-1.3,0-2.4-1.1-2.4-2.4
		C441.6,306.3,442.7,305.3,444,305.3L444,305.3z"/>
	<path class="st5" d="M434.5,305.3c1.3,0,2.4,1.1,2.4,2.4c0,1.3-1.1,2.4-2.4,2.4c-1.3,0-2.4-1.1-2.4-2.4
		C432.1,306.3,433.1,305.3,434.5,305.3L434.5,305.3z"/>
	<path class="st4" d="M390.3,254.5c0,0.4,0,0.6,0.1,0.8c0.1,0.3,0.4,0.5,0.8,0.6c0.9,0.3,2.2,0.5,3.7,0.5c0.9,0,1.7-0.1,2.4-0.2
		c0.6-0.2,1.2-0.4,1.7-0.9c0.5-0.4,0.8-1,1-1.8c0.2-0.8,0.3-1.8,0.3-3c0-1.9-0.3-3.3-0.9-4.2c-0.6-0.8-1.5-1.3-2.8-1.3
		c-1.4,0-2.6,0.3-3.4,0.8v-5.1c0-0.2,0-0.4-0.1-0.5c-0.1-0.1-0.2-0.1-0.4-0.1h-1.8c-0.4,0-0.6,0.2-0.6,0.7V254.5L390.3,254.5z
		 M393.2,253.1v-4.5c0-0.2,0-0.3,0-0.4c0-0.1,0.1-0.2,0.3-0.3c0.4-0.3,1.1-0.4,2-0.4c0.8,0,1.3,0.2,1.5,0.7c0.2,0.5,0.4,1.3,0.4,2.5
		c0,1.3-0.2,2.2-0.5,2.6c-0.3,0.4-1,0.7-2,0.7c-0.5,0-0.9,0-1.2-0.1c-0.2,0-0.4-0.1-0.4-0.2C393.2,253.6,393.2,253.4,393.2,253.1
		L393.2,253.1z"/>
	<path class="st4" d="M412.4,250.7c0-1.2-0.1-2.1-0.3-2.9s-0.5-1.3-1-1.7c-0.5-0.4-1-0.7-1.5-0.8c-0.6-0.1-1.3-0.2-2.2-0.2
		c-0.8,0-1.5,0.1-2.1,0.2c-0.6,0.2-1.1,0.4-1.6,0.8c-0.5,0.4-0.9,1-1.1,1.7c-0.3,0.8-0.4,1.7-0.4,2.8c0,2.2,0.4,3.7,1.2,4.5
		c0.8,0.8,2.1,1.2,3.9,1.2c1.8,0,3.2-0.4,4-1.2C412,254.4,412.4,252.9,412.4,250.7L412.4,250.7z M409.5,250.8c0,1.3-0.2,2.2-0.5,2.6
		c-0.3,0.4-0.9,0.6-1.8,0.6c-0.8,0-1.4-0.2-1.7-0.7c-0.3-0.4-0.5-1.3-0.5-2.7c0-1.3,0.2-2.1,0.5-2.5s0.9-0.7,1.7-0.7
		c0.9,0,1.5,0.2,1.7,0.6C409.3,248.6,409.5,249.4,409.5,250.8L409.5,250.8z"/>
	<path class="st4" d="M417.7,252.1v-11.4c0-0.2,0-0.4-0.1-0.5c-0.1-0.1-0.2-0.1-0.4-0.1h-1.8c-0.4,0-0.6,0.2-0.6,0.6v11.8
		c0,1.2,0.2,2,0.5,2.5c0.3,0.4,0.7,0.8,1.2,1c0.5,0.2,1.3,0.3,2.3,0.3c0.4,0,0.7-0.2,0.7-0.5c0.1-0.3,0.1-0.7,0.1-1.1
		c0-0.3-0.2-0.5-0.5-0.6c-0.7-0.1-1.1-0.3-1.2-0.6C417.7,253.1,417.7,252.7,417.7,252.1L417.7,252.1z"/>
	<path class="st4" d="M423.5,251.6h5.9c0.2,0,0.4,0,0.5-0.1c0.2-0.1,0.2-0.3,0.2-0.7c0-0.8,0-1.4-0.1-1.9c0-0.5-0.1-1-0.3-1.5
		c-0.2-0.5-0.4-0.9-0.7-1.2c-0.3-0.3-0.7-0.5-1.3-0.7c-0.6-0.2-1.2-0.3-2.1-0.3c-1.8,0-3.1,0.4-3.9,1.3c-0.8,0.9-1.3,2.4-1.3,4.4
		c0,2,0.4,3.4,1.2,4.3c0.8,0.9,2.1,1.3,4.1,1.3c1.6,0,2.9-0.2,3.8-0.6c0.2-0.1,0.3-0.3,0.3-0.5c0-0.4-0.1-0.8-0.2-1.3
		c-0.1-0.2-0.3-0.3-0.5-0.3c-0.1,0-0.3,0-0.6,0.1c-0.7,0.2-1.5,0.2-2.4,0.2c-0.9,0-1.6-0.2-2-0.5
		C423.8,253.2,423.6,252.6,423.5,251.6L423.5,251.6z M423.6,249.6c0-0.8,0.2-1.4,0.5-1.8c0.3-0.4,0.8-0.6,1.6-0.6
		c0.7,0,1.2,0.2,1.5,0.5c0.3,0.3,0.4,0.8,0.4,1.5c0,0.2,0,0.3,0,0.4H423.6L423.6,249.6z"/>
	<path class="st4" d="M436,251.7v-4h1.9c0.4,0,0.6-0.2,0.6-0.6v-1.2c0-0.4-0.2-0.6-0.7-0.6H436v-2.2c0-0.5-0.2-0.7-0.5-0.7h-1.6
		c-0.4,0-0.5,0.2-0.6,0.7c0,0.9-0.1,1.7-0.1,2.2H432c-0.4,0-0.6,0.2-0.6,0.6v1.2c0,0.4,0.2,0.6,0.6,0.6h1.1v3.9c0,0.9,0,1.6,0.1,2.2
		c0.1,0.5,0.3,0.9,0.6,1.3c0.4,0.4,0.9,0.7,1.5,0.9c0.6,0.2,1.5,0.3,2.7,0.3c0.4,0,0.6-0.2,0.7-0.6c0-0.4,0-0.8,0-1.2
		c0-0.4-0.2-0.5-0.5-0.6c-1-0.1-1.7-0.3-1.9-0.5C436.1,253.1,436,252.5,436,251.7L436,251.7z"/>
	<path class="st4" d="M450,250.7c0-1.2-0.1-2.1-0.3-2.9c-0.2-0.7-0.5-1.3-1-1.7c-0.5-0.4-1-0.7-1.5-0.8c-0.6-0.1-1.3-0.2-2.2-0.2
		c-0.8,0-1.5,0.1-2.1,0.2c-0.6,0.2-1.1,0.4-1.6,0.8c-0.5,0.4-0.9,1-1.1,1.7c-0.2,0.8-0.4,1.7-0.4,2.8c0,2.2,0.4,3.7,1.2,4.5
		c0.8,0.8,2.1,1.2,3.9,1.2c1.8,0,3.2-0.4,4-1.2C449.6,254.4,450,252.9,450,250.7L450,250.7z M447.1,250.8c0,1.3-0.2,2.2-0.5,2.6
		c-0.3,0.4-0.9,0.6-1.8,0.6c-0.8,0-1.4-0.2-1.7-0.7c-0.3-0.4-0.5-1.3-0.5-2.7c0-1.3,0.2-2.1,0.5-2.5c0.3-0.4,0.9-0.7,1.7-0.7
		c0.9,0,1.5,0.2,1.7,0.6C447,248.6,447.1,249.4,447.1,250.8L447.1,250.8z"/>
	<path class="st1" d="M386.8,271.9H382c-1.3,0-2.4-1.1-2.4-2.4c0-1.3,1.1-2.4,2.4-2.4h4.8c1.3,0,2.4,1.1,2.4,2.4
		C389.2,270.8,388.1,271.9,386.8,271.9L386.8,271.9z"/>
	<path class="st1" d="M386.8,281.4H382c-1.3,0-2.4-1.1-2.4-2.4c0-1.3,1.1-2.4,2.4-2.4h4.8c1.3,0,2.4,1.1,2.4,2.4
		C389.2,280.4,388.1,281.4,386.8,281.4L386.8,281.4z"/>
	<path class="st2" d="M458.3,271.9h-4.8c-1.3,0-2.4-1.1-2.4-2.4c0-1.3,1.1-2.4,2.4-2.4h4.8c1.3,0,2.4,1.1,2.4,2.4
		C460.7,270.8,459.6,271.9,458.3,271.9L458.3,271.9z"/>
	<path class="st2" d="M458.3,281.4h-4.8c-1.3,0-2.4-1.1-2.4-2.4c0-1.3,1.1-2.4,2.4-2.4h4.8c1.3,0,2.4,1.1,2.4,2.4
		C460.7,280.4,459.6,281.4,458.3,281.4L458.3,281.4z"/>
	<path class="st2" d="M424.9,271.9h-28.6c-1.3,0-2.4-1.1-2.4-2.4c0-1.3,1.1-2.4,2.4-2.4h28.6c1.3,0,2.4,1.1,2.4,2.4
		C427.3,270.8,426.2,271.9,424.9,271.9L424.9,271.9z"/>
	<path class="st2" d="M415.4,281.4h-19.1c-1.3,0-2.4-1.1-2.4-2.4c0-1.3,1.1-2.4,2.4-2.4h19.1c1.3,0,2.4,1.1,2.4,2.4
		C417.8,280.4,416.7,281.4,415.4,281.4L415.4,281.4z"/>
	<path class="st5" d="M424.9,276.7c1.3,0,2.4,1.1,2.4,2.4c0,1.3-1.1,2.4-2.4,2.4s-2.4-1.1-2.4-2.4
		C422.5,277.7,423.6,276.7,424.9,276.7L424.9,276.7z"/>
	<path class="st5" d="M444,276.7c1.3,0,2.4,1.1,2.4,2.4c0,1.3-1.1,2.4-2.4,2.4c-1.3,0-2.4-1.1-2.4-2.4
		C441.6,277.7,442.7,276.7,444,276.7L444,276.7z"/>
	<path class="st5" d="M434.5,276.7c1.3,0,2.4,1.1,2.4,2.4c0,1.3-1.1,2.4-2.4,2.4c-1.3,0-2.4-1.1-2.4-2.4
		C432.1,277.7,433.1,276.7,434.5,276.7L434.5,276.7z"/>
	<path class="st5" d="M444,267.1c1.3,0,2.4,1.1,2.4,2.4c0,1.3-1.1,2.4-2.4,2.4c-1.3,0-2.4-1.1-2.4-2.4
		C441.6,268.2,442.7,267.1,444,267.1L444,267.1z"/>
	<path class="st5" d="M434.5,267.1c1.3,0,2.4,1.1,2.4,2.4c0,1.3-1.1,2.4-2.4,2.4c-1.3,0-2.4-1.1-2.4-2.4
		C432.1,268.2,433.1,267.1,434.5,267.1L434.5,267.1z"/>
</g>
</svg>
